# xmcd CD database file
#
# Track frame offsets:
#	150
#	16780
#	43927
#	58817
#	88107
#	101772
#	121005
#	143767
#	171252
#	189175
#	216822
#	238625
#	259277
#
# Disc length: 3736 seconds
#
# Revision: 0
# Processed by: cddbd v1.5.1PL2 Copyright (c) Steve Scherf et al.
# Submitted via: CDex 1.51
#
DISCID=b30e960d
DTITLE=Various Artist - Re-Bop: The Savory Remixes 
DYEAR=2006
DGENRE=Jazz
TTITLE0=The Modern Jazz Quartet/ Movin' Nicely
TTITLE1=Duke Jordan/ Night in Tunisia
TTITLE2=Charlie Parker feat. Miles Davis/ Moose the Mooche
TTITLE3=Curtis Fuller/ Minor Vamp
TTITLE4=Cal Tjader/ Minority
TTITLE5=Herbie Mann/ Yardbird Suite
TTITLE6=Dizzy Gillespie/ Caravan
TTITLE7=Dizzy Gillepsie feat. Sarah Vaughan/ Lover Man
TTITLE8=Red Norvo/ NIght and Day
TTITLE9=Charlie Parker/ Koko
TTITLE10=Cannonball Adderley/ Bohemia After Dark
TTITLE11=Curtis Fuller/ Five Spot After Dark
TTITLE12=Dizzy Gillepsie/ Shaw 'Nuff
EXTD=YEAR: 2006
EXTT0=
EXTT1=
EXTT2=
EXTT3=
EXTT4=
EXTT5=
EXTT6=
EXTT7=
EXTT8=
EXTT9=
EXTT10=
EXTT11=
EXTT12=
PLAYORDER=
